<mxfile host="app.diagrams.net" agent="Mozilla/5.0 (Windows NT 10.0; Win64; x64) AppleWebKit/537.36 (KHTML, like Gecko) Chrome/131.0.0.0 Safari/537.36" border="50" scale="3" compressed="false" locked="false" version="25.0.3">
  <diagram name="Blank" id="YmL12bMKpDGza6XwsDPr">
    <mxGraphModel dx="1687" dy="1268" grid="0" gridSize="10" guides="1" tooltips="1" connect="1" arrows="1" fold="1" page="0" pageScale="1" pageWidth="827" pageHeight="1169" background="none" math="1" shadow="0">
      <root>
        <mxCell id="X5NqExCQtvZxIxQ7pmgY-0" />
        <mxCell id="1" parent="X5NqExCQtvZxIxQ7pmgY-0" />
        <mxCell id="Gr0Zq-AI6Quabplr0KPa-179" value="Mindmap" style="swimlane;html=1;startSize=20;horizontal=1;containerType=tree;labelBackgroundColor=none;strokeColor=#D4E1F5;strokeWidth=1;fillColor=none;fontFamily=Comic Sans MS;fontSize=9;swimlaneLine=0;dashed=1;collapsible=0;" parent="1" vertex="1">
          <mxGeometry x="26" y="-101" width="2267" height="1993" as="geometry" />
        </mxCell>
        <mxCell id="Q0ax3xpyjp7CQq7zGS4t-4" style="edgeStyle=orthogonalEdgeStyle;rounded=0;orthogonalLoop=1;jettySize=auto;html=1;entryX=0;entryY=0.5;entryDx=0;entryDy=0;" edge="1" parent="Gr0Zq-AI6Quabplr0KPa-179" source="Gr0Zq-AI6Quabplr0KPa-180" target="Q0ax3xpyjp7CQq7zGS4t-3">
          <mxGeometry relative="1" as="geometry" />
        </mxCell>
        <mxCell id="Q0ax3xpyjp7CQq7zGS4t-16" style="edgeStyle=orthogonalEdgeStyle;rounded=0;orthogonalLoop=1;jettySize=auto;html=1;entryX=0;entryY=0.5;entryDx=0;entryDy=0;" edge="1" parent="Gr0Zq-AI6Quabplr0KPa-179" source="Gr0Zq-AI6Quabplr0KPa-180" target="Q0ax3xpyjp7CQq7zGS4t-15">
          <mxGeometry relative="1" as="geometry" />
        </mxCell>
        <mxCell id="Q0ax3xpyjp7CQq7zGS4t-19" style="edgeStyle=orthogonalEdgeStyle;rounded=0;orthogonalLoop=1;jettySize=auto;html=1;entryX=0;entryY=0.5;entryDx=0;entryDy=0;" edge="1" parent="Gr0Zq-AI6Quabplr0KPa-179" source="Gr0Zq-AI6Quabplr0KPa-180" target="Q0ax3xpyjp7CQq7zGS4t-17">
          <mxGeometry relative="1" as="geometry" />
        </mxCell>
        <mxCell id="Q0ax3xpyjp7CQq7zGS4t-20" style="edgeStyle=orthogonalEdgeStyle;rounded=0;orthogonalLoop=1;jettySize=auto;html=1;entryX=0;entryY=0.5;entryDx=0;entryDy=0;" edge="1" parent="Gr0Zq-AI6Quabplr0KPa-179" source="Gr0Zq-AI6Quabplr0KPa-180" target="Q0ax3xpyjp7CQq7zGS4t-18">
          <mxGeometry relative="1" as="geometry" />
        </mxCell>
        <mxCell id="Q0ax3xpyjp7CQq7zGS4t-22" style="edgeStyle=orthogonalEdgeStyle;rounded=0;orthogonalLoop=1;jettySize=auto;html=1;entryX=0;entryY=0.5;entryDx=0;entryDy=0;" edge="1" parent="Gr0Zq-AI6Quabplr0KPa-179" source="Gr0Zq-AI6Quabplr0KPa-180" target="Q0ax3xpyjp7CQq7zGS4t-21">
          <mxGeometry relative="1" as="geometry" />
        </mxCell>
        <mxCell id="Gr0Zq-AI6Quabplr0KPa-180" value="&lt;font face=&quot;Comic Sans MS&quot;&gt;ミッションステートメント&lt;/font&gt;" style="ellipse;whiteSpace=wrap;html=1;align=center;container=1;recursiveResize=0;treeFolding=1;strokeWidth=2;fillColor=#fff2cc;strokeColor=#d6b656;" parent="Gr0Zq-AI6Quabplr0KPa-179" vertex="1" collapsed="1">
          <mxGeometry x="13" y="173" width="183" height="61" as="geometry" />
        </mxCell>
        <mxCell id="Q0ax3xpyjp7CQq7zGS4t-3" value="他人のバックグラウンドに思考を巡らせ、安易な言動でその人を傷つけないよう努力する。" style="rounded=1;whiteSpace=wrap;html=1;strokeWidth=2;fillColor=#f8cecc;strokeColor=#b85450;" vertex="1" parent="Gr0Zq-AI6Quabplr0KPa-179">
          <mxGeometry x="290" y="423" width="521" height="60" as="geometry" />
        </mxCell>
        <mxCell id="Q0ax3xpyjp7CQq7zGS4t-15" value="自分の能力は人の役に立つことに使う。" style="rounded=1;whiteSpace=wrap;html=1;strokeWidth=2;fillColor=#f8cecc;strokeColor=#b85450;" vertex="1" parent="Gr0Zq-AI6Quabplr0KPa-179">
          <mxGeometry x="290" y="784" width="521" height="60" as="geometry" />
        </mxCell>
        <mxCell id="Q0ax3xpyjp7CQq7zGS4t-17" value="自分の専門分野に対して深い教養を持ち、それを他人に分かりやすく語れるようになる。" style="rounded=1;whiteSpace=wrap;html=1;strokeWidth=2;fillColor=#f8cecc;strokeColor=#b85450;" vertex="1" parent="Gr0Zq-AI6Quabplr0KPa-179">
          <mxGeometry x="290" y="1144" width="521" height="60" as="geometry" />
        </mxCell>
        <mxCell id="Q0ax3xpyjp7CQq7zGS4t-18" value="他人の行動を深く観察し、感銘を受けることがあれば直接伝える。" style="rounded=1;whiteSpace=wrap;html=1;strokeWidth=2;fillColor=#f8cecc;strokeColor=#b85450;" vertex="1" parent="Gr0Zq-AI6Quabplr0KPa-179">
          <mxGeometry x="290" y="1489" width="521" height="60" as="geometry" />
        </mxCell>
        <mxCell id="Q0ax3xpyjp7CQq7zGS4t-21" value="常に自分にとっての正しさを考え、自分が正しいと思うことをする。" style="rounded=1;whiteSpace=wrap;html=1;strokeWidth=2;fillColor=#f8cecc;strokeColor=#b85450;" vertex="1" parent="Gr0Zq-AI6Quabplr0KPa-179">
          <mxGeometry x="290" y="48" width="521" height="60" as="geometry" />
        </mxCell>
        <mxCell id="Q0ax3xpyjp7CQq7zGS4t-26" style="edgeStyle=orthogonalEdgeStyle;rounded=0;orthogonalLoop=1;jettySize=auto;html=1;entryX=0;entryY=0.5;entryDx=0;entryDy=0;" edge="1" target="Q0ax3xpyjp7CQq7zGS4t-27" source="Q0ax3xpyjp7CQq7zGS4t-21" parent="Gr0Zq-AI6Quabplr0KPa-179">
          <mxGeometry relative="1" as="geometry">
            <mxPoint x="222" y="233" as="sourcePoint" />
          </mxGeometry>
        </mxCell>
        <mxCell id="Q0ax3xpyjp7CQq7zGS4t-27" value="英語：Do what you think is right." style="rounded=1;whiteSpace=wrap;html=1;strokeWidth=2;" vertex="1" parent="Gr0Zq-AI6Quabplr0KPa-179">
          <mxGeometry x="851" y="48" width="521" height="60" as="geometry" />
        </mxCell>
        <mxCell id="Q0ax3xpyjp7CQq7zGS4t-28" style="edgeStyle=orthogonalEdgeStyle;rounded=0;orthogonalLoop=1;jettySize=auto;html=1;entryX=0;entryY=0.5;entryDx=0;entryDy=0;" edge="1" target="Q0ax3xpyjp7CQq7zGS4t-29" source="Q0ax3xpyjp7CQq7zGS4t-3" parent="Gr0Zq-AI6Quabplr0KPa-179">
          <mxGeometry relative="1" as="geometry">
            <mxPoint x="222" y="233" as="sourcePoint" />
          </mxGeometry>
        </mxCell>
        <mxCell id="Q0ax3xpyjp7CQq7zGS4t-29" value="サブステート：数本の定規で自分や他人を測ることはしない。" style="rounded=1;whiteSpace=wrap;html=1;strokeWidth=2;" vertex="1" parent="Gr0Zq-AI6Quabplr0KPa-179">
          <mxGeometry x="851" y="423" width="521" height="60" as="geometry" />
        </mxCell>
        <mxCell id="Q0ax3xpyjp7CQq7zGS4t-30" style="edgeStyle=orthogonalEdgeStyle;rounded=0;orthogonalLoop=1;jettySize=auto;html=1;entryX=0;entryY=0.5;entryDx=0;entryDy=0;" edge="1" target="Q0ax3xpyjp7CQq7zGS4t-31" source="Q0ax3xpyjp7CQq7zGS4t-15" parent="Gr0Zq-AI6Quabplr0KPa-179">
          <mxGeometry relative="1" as="geometry">
            <mxPoint x="222" y="233" as="sourcePoint" />
          </mxGeometry>
        </mxCell>
        <mxCell id="Q0ax3xpyjp7CQq7zGS4t-31" value="補足：自分がやってることが楽しいのと同等くらいに人の役に立っている実感が大切。人の目を気にする人間でもあるので、胸を張って人の役に立つことをやっていると思いたい。" style="rounded=1;whiteSpace=wrap;html=1;strokeWidth=2;" vertex="1" parent="Gr0Zq-AI6Quabplr0KPa-179">
          <mxGeometry x="851" y="784" width="521" height="60" as="geometry" />
        </mxCell>
        <mxCell id="Q0ax3xpyjp7CQq7zGS4t-33" style="edgeStyle=orthogonalEdgeStyle;rounded=0;orthogonalLoop=1;jettySize=auto;html=1;entryX=0;entryY=0.5;entryDx=0;entryDy=0;" edge="1" target="Q0ax3xpyjp7CQq7zGS4t-34" source="Q0ax3xpyjp7CQq7zGS4t-17" parent="Gr0Zq-AI6Quabplr0KPa-179">
          <mxGeometry relative="1" as="geometry">
            <mxPoint x="222" y="233" as="sourcePoint" />
          </mxGeometry>
        </mxCell>
        <mxCell id="Q0ax3xpyjp7CQq7zGS4t-34" value="気づき：意外と日々の業務をやっているだけではこういう事はできるようにならない。プライベートな時間を使ってしっかり頭の中で抽象化・構造化をしないとこれはできない" style="rounded=1;whiteSpace=wrap;html=1;strokeWidth=2;" vertex="1" parent="Gr0Zq-AI6Quabplr0KPa-179">
          <mxGeometry x="851" y="1144" width="521" height="60" as="geometry" />
        </mxCell>
        <mxCell id="Q0ax3xpyjp7CQq7zGS4t-35" style="edgeStyle=orthogonalEdgeStyle;rounded=0;orthogonalLoop=1;jettySize=auto;html=1;entryX=0;entryY=0.5;entryDx=0;entryDy=0;" edge="1" target="Q0ax3xpyjp7CQq7zGS4t-36" source="Q0ax3xpyjp7CQq7zGS4t-18" parent="Gr0Zq-AI6Quabplr0KPa-179">
          <mxGeometry relative="1" as="geometry">
            <mxPoint x="222" y="233" as="sourcePoint" />
          </mxGeometry>
        </mxCell>
        <mxCell id="Q0ax3xpyjp7CQq7zGS4t-36" value="観察の説明：観察は意識しないとできない。ただ受け身に感じるだけではなく、積極的に観察する。特に相手のいいところを観察することが大事" style="rounded=1;whiteSpace=wrap;html=1;strokeWidth=2;" vertex="1" parent="Gr0Zq-AI6Quabplr0KPa-179">
          <mxGeometry x="851" y="1489" width="521" height="60" as="geometry" />
        </mxCell>
        <mxCell id="Q0ax3xpyjp7CQq7zGS4t-39" style="edgeStyle=orthogonalEdgeStyle;rounded=0;orthogonalLoop=1;jettySize=auto;html=1;entryX=0;entryY=0.5;entryDx=0;entryDy=0;" edge="1" target="Q0ax3xpyjp7CQq7zGS4t-40" source="Q0ax3xpyjp7CQq7zGS4t-18" parent="Gr0Zq-AI6Quabplr0KPa-179">
          <mxGeometry relative="1" as="geometry">
            <mxPoint x="222" y="233" as="sourcePoint" />
          </mxGeometry>
        </mxCell>
        <mxCell id="Q0ax3xpyjp7CQq7zGS4t-40" value="伝えることの説明：直接伝えることがそのまま相手へのFBにつながると考えるから。直接伝えないと心理的安全性が良くなっていかない。" style="rounded=1;whiteSpace=wrap;html=1;strokeWidth=2;" vertex="1" parent="Gr0Zq-AI6Quabplr0KPa-179">
          <mxGeometry x="851" y="1559" width="521" height="60" as="geometry" />
        </mxCell>
        <mxCell id="Q0ax3xpyjp7CQq7zGS4t-41" style="edgeStyle=orthogonalEdgeStyle;rounded=0;orthogonalLoop=1;jettySize=auto;html=1;entryX=0;entryY=0.5;entryDx=0;entryDy=0;" edge="1" target="Q0ax3xpyjp7CQq7zGS4t-42" source="Q0ax3xpyjp7CQq7zGS4t-21" parent="Gr0Zq-AI6Quabplr0KPa-179">
          <mxGeometry relative="1" as="geometry">
            <mxPoint x="222" y="232" as="sourcePoint" />
          </mxGeometry>
        </mxCell>
        <mxCell id="Q0ax3xpyjp7CQq7zGS4t-42" value="補足：正しいと思うことをするにはまず自分の中に正しさを持たないといけない。" style="rounded=1;whiteSpace=wrap;html=1;strokeWidth=2;" vertex="1" parent="Gr0Zq-AI6Quabplr0KPa-179">
          <mxGeometry x="851" y="118" width="521" height="60" as="geometry" />
        </mxCell>
        <mxCell id="Q0ax3xpyjp7CQq7zGS4t-45" style="edgeStyle=orthogonalEdgeStyle;rounded=0;orthogonalLoop=1;jettySize=auto;html=1;entryX=0;entryY=0.5;entryDx=0;entryDy=0;" edge="1" target="Q0ax3xpyjp7CQq7zGS4t-46" source="Q0ax3xpyjp7CQq7zGS4t-29" parent="Gr0Zq-AI6Quabplr0KPa-179">
          <mxGeometry relative="1" as="geometry">
            <mxPoint x="837" y="352" as="sourcePoint" />
          </mxGeometry>
        </mxCell>
        <mxCell id="Q0ax3xpyjp7CQq7zGS4t-46" value="説明：同時に数本の定規で自分を測ることもしない。自分には自分の、他人には他人の魅力があるので、それを尊重する。" style="rounded=1;whiteSpace=wrap;html=1;strokeWidth=2;" vertex="1" parent="Gr0Zq-AI6Quabplr0KPa-179">
          <mxGeometry x="1412" y="423" width="521" height="60" as="geometry" />
        </mxCell>
      </root>
    </mxGraphModel>
  </diagram>
</mxfile>
